<?xml version="1.0" encoding="UTF-8"?>
<svg width="400" height="400" viewBox="0 0 400 400" fill="none" xmlns="http://www.w3.org/2000/svg">
  <rect width="400" height="400" fill="#F5F5F5"/>
  <path d="M200 150C180.117 150 164 166.117 164 186C164 205.883 180.117 222 200 222C219.883 222 236 205.883 236 186C236 166.117 219.883 150 200 150ZM200 216C183.458 216 170 202.542 170 186C170 169.458 183.458 156 200 156C216.542 156 230 169.458 230 186C230 202.542 216.542 216 200 216Z" fill="#E0E0E0"/>
  <path d="M200 170C194.477 170 190 174.477 190 180C190 185.523 194.477 190 200 190C205.523 190 210 185.523 210 180C210 174.477 205.523 170 200 170Z" fill="#BDBDBD"/>
  <path d="M260 230H140C135.582 230 132 233.582 132 238V242C132 246.418 135.582 250 140 250H260C264.418 250 268 246.418 268 242V238C268 233.582 264.418 230 260 230Z" fill="#E0E0E0"/>
  <path d="M260 260H140C135.582 260 132 263.582 132 268V272C132 276.418 135.582 280 140 280H260C264.418 280 268 276.418 268 272V268C268 263.582 264.418 260 260 260Z" fill="#E0E0E0"/>
  <path d="M260 290H140C135.582 290 132 293.582 132 298V302C132 306.418 135.582 310 140 310H260C264.418 310 268 306.418 268 302V298C268 293.582 264.418 290 260 290Z" fill="#E0E0E0"/>
  <path d="M300 100H260V60C260 51.1634 252.837 44 244 44H156C147.163 44 140 51.1634 140 60V100H100C91.1634 100 84 107.163 84 116V356C84 364.837 91.1634 372 100 372H300C308.837 372 316 364.837 316 356V116C316 107.163 308.837 100 300 100ZM152 64H248C250.209 64 252 65.7909 252 68V100H148V68C148 65.7909 149.791 64 152 64ZM308 356C308 358.209 306.209 360 304 360H96C93.7909 360 92 358.209 92 356V116C92 113.791 93.7909 112 96 112H304C306.209 112 308 113.791 308 116V356Z" fill="#BDBDBD"/>
</svg>
