<?xml version="1.0" encoding="utf-8"?>
<svg version="1.1" id="Layer_1" xmlns="http://www.w3.org/2000/svg" xmlns:xlink="http://www.w3.org/1999/xlink" x="0px" y="0px"
	 viewBox="0 0 512 126" style="enable-background:new 0 0 512 126;" xml:space="preserve">
<g>
	<path style="fill:#253B80;" d="M132.4,43.9c-0.1-10.3-8.5-18.7-18.8-18.7H92.6c-3.4,0-6.3,2.4-7.1,5.7L64.4,107.9c-0.2,0.7-0.3,1.4-0.3,2.1
		c0,3.8,3.1,6.9,6.9,6.9h15.8c3,0,5.6-2,6.4-4.8l5.2-18.1c0.8-2.8,3.4-4.8,6.4-4.8h9.7c15.1,0,27.4-12.3,27.4-27.4
		C132.9,51.8,133.4,47.8,132.4,43.9z M111.4,78.4c0,3.9-3.2,7.1-7.1,7.1h-5.5l2.4-8.5c0.4-1.4,1.7-2.4,3.1-2.4h0.6
		c1.9,0,3.5,1.6,3.5,3.5V78.4z"/>
	<path style="fill:#179BD7;" d="M132.4,43.9c-0.1-10.3-8.5-18.7-18.8-18.7H92.6c-3.4,0-6.3,2.4-7.1,5.7L64.4,107.9
		c-0.2,0.7-0.3,1.4-0.3,2.1c0,3.8,3.1,6.9,6.9,6.9h15.8c3,0,5.6-2,6.4-4.8l5.2-18.1c0.8-2.8,3.4-4.8,6.4-4.8h9.7
		c15.1,0,27.4-12.3,27.4-27.4C132.9,51.8,133.4,47.8,132.4,43.9z M111.4,78.4c0,3.9-3.2,7.1-7.1,7.1h-5.5l2.4-8.5
		c0.4-1.4,1.7-2.4,3.1-2.4h0.6c1.9,0,3.5,1.6,3.5,3.5V78.4z"/>
	<path style="fill:#222D65;" d="M92.6,25.2h21c10.3,0,18.7,8.4,18.8,18.7c0.9,3.9,0.5,7.9-1.1,11.6c-1.6,3.7-4.2,7-7.5,9.5
		c-3.3,2.5-7.3,4.1-11.6,4.5c-0.9,0.1-1.9,0.1-2.8,0.1h-5.5l2.4-8.5c0.4-1.4,1.7-2.4,3.1-2.4h0.6c1.9,0,3.5,1.6,3.5,3.5v1.9
		c0,3.9-3.2,7.1-7.1,7.1h-5.5l5.2-18.1c0.8-2.8,3.4-4.8,6.4-4.8H92.6z"/>
</g>
<g>
	<path style="fill:#179BD7;" d="M233.2,43.9c-0.1-10.3-8.5-18.7-18.8-18.7h-21.1c-3.4,0-6.3,2.4-7.1,5.7l-21.1,77.1
		c-0.2,0.7-0.3,1.4-0.3,2.1c0,3.8,3.1,6.9,6.9,6.9h16.5c3.4,0,6.3-2.4,7.1-5.7l5.2-19.1c0.8-2.8,3.4-4.8,6.4-4.8h9.7
		c15.1,0,27.4-12.3,27.4-27.4C233.7,51.8,234.2,47.8,233.2,43.9z M212.2,78.4c0,3.9-3.2,7.1-7.1,7.1h-5.5l2.4-8.5
		c0.4-1.4,1.7-2.4,3.1-2.4h0.6c1.9,0,3.5,1.6,3.5,3.5V78.4z"/>
	<path style="fill:#253B80;" d="M233.2,43.9c-0.1-10.3-8.5-18.7-18.8-18.7h-21.1c-3.4,0-6.3,2.4-7.1,5.7l-21.1,77.1
		c-0.2,0.7-0.3,1.4-0.3,2.1c0,3.8,3.1,6.9,6.9,6.9h16.5c3.4,0,6.3-2.4,7.1-5.7l5.2-19.1c0.8-2.8,3.4-4.8,6.4-4.8h9.7
		c15.1,0,27.4-12.3,27.4-27.4C233.7,51.8,234.2,47.8,233.2,43.9z M212.2,78.4c0,3.9-3.2,7.1-7.1,7.1h-5.5l2.4-8.5
		c0.4-1.4,1.7-2.4,3.1-2.4h0.6c1.9,0,3.5,1.6,3.5,3.5V78.4z"/>
</g>
</svg>
